<svg xmlns:dc="http://purl.org/dc/elements/1.1/" xmlns:cc="http://creativecommons.org/ns#" xmlns:rdf="http://www.w3.org/1999/02/22-rdf-syntax-ns#" xmlns:svg="http://www.w3.org/2000/svg" xmlns="http://www.w3.org/2000/svg" xmlns:sodipodi="http://sodipodi.sourceforge.net/DTD/sodipodi-0.dtd" xmlns:inkscape="http://www.inkscape.org/namespaces/inkscape" preserveAspectRatio="xMidYMid" viewBox="0 0 62 78.75" version="1.1" x="0px" y="0px"><defs><style>

      .cls-3 {
        fill: #000000;
      }
    </style></defs><path style="" d="M 31.142578 0.01171875 C 13.968578 0.01171875 -0.005859375 13.987016 -0.005859375 31.166016 C -0.005859375 48.344016 13.968578 62.320312 31.142578 62.320312 C 48.316578 62.320312 62.289062 48.344016 62.289062 31.166016 C 62.289062 13.987016 48.316578 0.01171875 31.142578 0.01171875 z M 31.142578 3.0117188 C 46.662578 3.0117188 59.289062 15.641016 59.289062 31.166016 C 59.289062 46.690016 46.662578 59.318359 31.142578 59.318359 C 15.621578 59.318359 2.9941406 46.690016 2.9941406 31.166016 C 2.9941406 15.641016 15.621578 3.0117188 31.142578 3.0117188 z M 20.785156 19.412109 C 18.804156 19.412109 17.199219 21.019 17.199219 23 C 17.199219 24.982 18.804156 26.587891 20.785156 26.587891 C 22.766156 26.587891 24.371094 24.982 24.371094 23 C 24.371094 21.019 22.766156 19.412109 20.785156 19.412109 z M 41.40625 19.412109 C 39.42625 19.412109 37.820312 21.019 37.820312 23 C 37.820312 24.982 39.42625 26.587891 41.40625 26.587891 C 43.38725 26.587891 44.992188 24.982 44.992188 23 C 44.992187 21.019 43.38725 19.412109 41.40625 19.412109 z M 16.271484 37.789062 C 15.443484 37.789063 14.771484 38.460062 14.771484 39.289062 C 14.771484 46.183062 20.850359 51.792969 28.318359 51.792969 L 34.341797 51.792969 C 41.810797 51.792969 47.888672 46.183062 47.888672 39.289062 C 47.888672 38.460062 47.216672 37.789062 46.388672 37.789062 L 16.271484 37.789062 z M 17.902344 40.789062 L 44.757812 40.789062 C 43.956813 45.318062 39.590797 48.792969 34.341797 48.792969 L 28.318359 48.792969 C 23.069359 48.792969 18.703344 45.318063 17.902344 40.789062 z " fill="#000000" fill-rule="evenodd"/><text x="0" y="78" fill="#000000" font-size="5px" font-weight="bold" font-family="'Helvetica Neue', Helvetica, Arial-Unicode, Arial, Sans-serif">Created by Shital Patel</text><text x="0" y="83" fill="#000000" font-size="5px" font-weight="bold" font-family="'Helvetica Neue', Helvetica, Arial-Unicode, Arial, Sans-serif">from the Noun Project</text></svg>